REM DIRINDEX 1\2\4\18,1\2\4\19,1\2\5\20,1\2\5\21,1\2\6\22,1\2\7\23,1\2\8\24,1\2\8\25,1\2\9\26,1\2\10\27,1\3\11\28,1\3\11\29,1\3\11\30,1\3\11\31,1\3\12\32,1\3\12\33,1\3\12\34,1\3\12\35,1\3\13\36,1\3\13\37,1\3\14\38,1\3\14\39,1\3\15\40,1\3\15\41,1\3\15\42,1\3\16\43,1\3\16\44,1\3\17\45,1\3\17\46
REM DIRNAME cjc023,folder01,folder02,folder03,folder04,folder05,folder06,folder07,folder08,folder09,folder10,folder11,folder12,folder13,folder14,folder15,folder16,folder17,folder18,folder19,folder20,folder21,folder22,folder23,folder24,folder25,folder26,folder27,folder28,folder29,folder30,folder31,folder32,folder33,folder34,folder35,folder36,folder37,folder38,folder39,folder40,folder41,folder42,folder43,folder44,folder45
TITLE ""
FILE "12.mp3" MP3
  TRACK 01 AUDIO
    TITLE "0:"
    INDEX 01 00:00:00
  TRACK 02 AUDIO
    TITLE "28:cjc023_6321"
    INDEX 01 00:00:13
  TRACK 03 AUDIO
    TITLE "0:"
    INDEX 01 00:01:22
  TRACK 04 AUDIO
    TITLE "29:cjc023_6322"
    INDEX 01 00:01:71
  TRACK 05 AUDIO
    TITLE "0:"
    INDEX 01 00:03:35
  TRACK 06 AUDIO
    TITLE "30:cjc023_6323"
    INDEX 01 00:03:57
  TRACK 07 AUDIO
    TITLE "0:"
    INDEX 01 00:05:38
  TRACK 08 AUDIO
    TITLE "31:cjc023_6324"
    INDEX 01 00:05:59
  TRACK 09 AUDIO
    TITLE "0:"
    INDEX 01 00:07:39
  TRACK 10 AUDIO
    TITLE "28:cjc023_6325"
    INDEX 01 00:08:36
  TRACK 11 AUDIO
    TITLE "0:"
    INDEX 01 00:09:55
  TRACK 12 AUDIO
    TITLE "29:cjc023_6326"
    INDEX 01 00:10:27
  TRACK 13 AUDIO
    TITLE "0:"
    INDEX 01 00:11:40
  TRACK 14 AUDIO
    TITLE "30:cjc023_6327"
    INDEX 01 00:11:60
  TRACK 15 AUDIO
    TITLE "0:"
    INDEX 01 00:13:45
  TRACK 16 AUDIO
    TITLE "31:cjc023_6328"
    INDEX 01 00:13:69
  TRACK 17 AUDIO
    TITLE "0:"
    INDEX 01 00:15:54
  TRACK 18 AUDIO
    TITLE "28:cjc023_6329"
    INDEX 01 00:16:51
  TRACK 19 AUDIO
    TITLE "0:"
    INDEX 01 00:18:03
  TRACK 20 AUDIO
    TITLE "29:cjc023_6330"
    INDEX 01 00:18:52
  TRACK 21 AUDIO
    TITLE "0:"
    INDEX 01 00:20:47
  TRACK 22 AUDIO
    TITLE "30:cjc023_6331"
    INDEX 01 00:20:65
  TRACK 23 AUDIO
    TITLE "0:"
    INDEX 01 00:23:03
  TRACK 24 AUDIO
    TITLE "31:cjc023_6332"
    INDEX 01 00:23:22
  TRACK 25 AUDIO
    TITLE "0:"
    INDEX 01 00:25:35
  TRACK 26 AUDIO
    TITLE "28:cjc023_6333"
    INDEX 01 00:26:34
  TRACK 27 AUDIO
    TITLE "0:"
    INDEX 01 00:27:61
  TRACK 28 AUDIO
    TITLE "29:cjc023_6334"
    INDEX 01 00:28:31
  TRACK 29 AUDIO
    TITLE "0:"
    INDEX 01 00:30:34
  TRACK 30 AUDIO
    TITLE "30:cjc023_6335"
    INDEX 01 00:30:57
  TRACK 31 AUDIO
    TITLE "0:"
    INDEX 01 00:32:72
  TRACK 32 AUDIO
    TITLE "31:cjc023_6336"
    INDEX 01 00:33:19
  TRACK 33 AUDIO
    TITLE "0:"
    INDEX 01 00:35:31
  TRACK 34 AUDIO
    TITLE "28:cjc023_6337"
    INDEX 01 00:36:29
  TRACK 35 AUDIO
    TITLE "0:"
    INDEX 01 00:37:50
  TRACK 36 AUDIO
    TITLE "29:cjc023_6338"
    INDEX 01 00:38:26
  TRACK 37 AUDIO
    TITLE "0:"
    INDEX 01 00:41:28
  TRACK 38 AUDIO
    TITLE "30:cjc023_6339"
    INDEX 01 00:41:51
  TRACK 39 AUDIO
    TITLE "0:"
    INDEX 01 00:45:14
  TRACK 40 AUDIO
    TITLE "31:cjc023_6340"
    INDEX 01 00:45:37
  TRACK 41 AUDIO
    TITLE "0:"
    INDEX 01 00:48:73
  TRACK 42 AUDIO
    TITLE "28:cjc023_6341"
    INDEX 01 00:49:70
  TRACK 43 AUDIO
    TITLE "0:"
    INDEX 01 00:51:36
  TRACK 44 AUDIO
    TITLE "29:cjc023_6342"
    INDEX 01 00:52:06
  TRACK 45 AUDIO
    TITLE "0:"
    INDEX 01 00:54:52
  TRACK 46 AUDIO
    TITLE "30:cjc023_6343"
    INDEX 01 00:54:72
  TRACK 47 AUDIO
    TITLE "0:"
    INDEX 01 00:57:50
  TRACK 48 AUDIO
    TITLE "31:cjc023_6344"
    INDEX 01 00:57:74
  TRACK 49 AUDIO
    TITLE "0:"
    INDEX 01 01:00:53
  TRACK 50 AUDIO
    TITLE "28:cjc023_6345"
    INDEX 01 01:01:50
  TRACK 51 AUDIO
    TITLE "0:"
    INDEX 01 01:03:08
  TRACK 52 AUDIO
    TITLE "29:cjc023_6346"
    INDEX 01 01:03:53
  TRACK 53 AUDIO
    TITLE "0:"
    INDEX 01 01:05:05
  TRACK 54 AUDIO
    TITLE "30:cjc023_6347"
    INDEX 01 01:05:36
  TRACK 55 AUDIO
    TITLE "0:"
    INDEX 01 01:07:45
  TRACK 56 AUDIO
    TITLE "31:cjc023_6348"
    INDEX 01 01:07:72
  TRACK 57 AUDIO
    TITLE "0:"
    INDEX 01 01:10:08
  TRACK 58 AUDIO
    TITLE "28:cjc023_6349"
    INDEX 01 01:11:03
  TRACK 59 AUDIO
    TITLE "0:"
    INDEX 01 01:12:46
  TRACK 60 AUDIO
    TITLE "29:cjc023_6350"
    INDEX 01 01:13:18
  TRACK 61 AUDIO
    TITLE "0:"
    INDEX 01 01:16:30
  TRACK 62 AUDIO
    TITLE "30:cjc023_6351"
    INDEX 01 01:16:54
  TRACK 63 AUDIO
    TITLE "0:"
    INDEX 01 01:19:46
  TRACK 64 AUDIO
    TITLE "31:cjc023_6352"
    INDEX 01 01:19:70
  TRACK 65 AUDIO
    TITLE "0:"
    INDEX 01 01:22:62
  TRACK 66 AUDIO
    TITLE "28:cjc023_6353"
    INDEX 01 01:23:58
  TRACK 67 AUDIO
    TITLE "0:"
    INDEX 01 01:24:71
  TRACK 68 AUDIO
    TITLE "29:cjc023_6354"
    INDEX 01 01:25:43
  TRACK 69 AUDIO
    TITLE "0:"
    INDEX 01 01:28:43
  TRACK 70 AUDIO
    TITLE "30:cjc023_6355"
    INDEX 01 01:28:67
  TRACK 71 AUDIO
    TITLE "0:"
    INDEX 01 01:31:69
  TRACK 72 AUDIO
    TITLE "31:cjc023_6356"
    INDEX 01 01:32:15
  TRACK 73 AUDIO
    TITLE "0:"
    INDEX 01 01:35:18
  TRACK 74 AUDIO
    TITLE "28:cjc023_6357"
    INDEX 01 01:36:15
  TRACK 75 AUDIO
    TITLE "0:"
    INDEX 01 01:37:44
  TRACK 76 AUDIO
    TITLE "29:cjc023_6358"
    INDEX 01 01:38:16
  TRACK 77 AUDIO
    TITLE "0:"
    INDEX 01 01:39:53
  TRACK 78 AUDIO
    TITLE "30:cjc023_6359"
    INDEX 01 01:40:01
  TRACK 79 AUDIO
    TITLE "0:"
    INDEX 01 01:41:44
  TRACK 80 AUDIO
    TITLE "31:cjc023_6360"
    INDEX 01 01:42:02
  TRACK 81 AUDIO
    TITLE "0:"
    INDEX 01 01:43:45
  TRACK 82 AUDIO
    TITLE "28:cjc023_6361"
    INDEX 01 01:44:56
  TRACK 83 AUDIO
    TITLE "0:"
    INDEX 01 01:46:00
  TRACK 84 AUDIO
    TITLE "29:cjc023_6362"
    INDEX 01 01:46:47
  TRACK 85 AUDIO
    TITLE "0:"
    INDEX 01 01:48:26
  TRACK 86 AUDIO
    TITLE "30:cjc023_6363"
    INDEX 01 01:48:46
  TRACK 87 AUDIO
    TITLE "0:"
    INDEX 01 01:50:21
  TRACK 88 AUDIO
    TITLE "31:cjc023_6364"
    INDEX 01 01:50:41
  TRACK 89 AUDIO
    TITLE "0:"
    INDEX 01 01:52:16
  TRACK 90 AUDIO
    TITLE "28:cjc023_6365"
    INDEX 01 01:53:10
  TRACK 91 AUDIO
    TITLE "0:"
    INDEX 01 01:54:37
  TRACK 92 AUDIO
    TITLE "29:cjc023_6366"
    INDEX 01 01:55:11
  TRACK 93 AUDIO
    TITLE "0:"
    INDEX 01 01:57:29
  TRACK 94 AUDIO
    TITLE "30:cjc023_6367"
    INDEX 01 01:57:51
  TRACK 95 AUDIO
    TITLE "0:"
    INDEX 01 01:59:63
  TRACK 96 AUDIO
    TITLE "31:cjc023_6368"
    INDEX 01 02:00:08
  TRACK 97 AUDIO
    TITLE "0:"
    INDEX 01 02:02:20
  TRACK 98 AUDIO
    TITLE "28:cjc023_6369"
    INDEX 01 02:03:18
  TRACK 99 AUDIO
    TITLE "0:"
    INDEX 01 02:04:29
  TRACK 100 AUDIO
    TITLE "29:cjc023_6370"
    INDEX 01 02:04:74
  TRACK 101 AUDIO
    TITLE "0:"
    INDEX 01 02:07:16
  TRACK 102 AUDIO
    TITLE "30:cjc023_6371"
    INDEX 01 02:07:37
  TRACK 103 AUDIO
    TITLE "0:"
    INDEX 01 02:09:48
  TRACK 104 AUDIO
    TITLE "31:cjc023_6372"
    INDEX 01 02:09:68
  TRACK 105 AUDIO
    TITLE "0:"
    INDEX 01 02:12:01
  TRACK 106 AUDIO
    TITLE "28:cjc023_6373"
    INDEX 01 02:12:74
  TRACK 107 AUDIO
    TITLE "0:"
    INDEX 01 02:14:22
  TRACK 108 AUDIO
    TITLE "29:cjc023_6374"
    INDEX 01 02:14:71
  TRACK 109 AUDIO
    TITLE "0:"
    INDEX 01 02:16:54
  TRACK 110 AUDIO
    TITLE "30:cjc023_6375"
    INDEX 01 02:17:00
  TRACK 111 AUDIO
    TITLE "0:"
    INDEX 01 02:18:63
  TRACK 112 AUDIO
    TITLE "31:cjc023_6376"
    INDEX 01 02:19:09
  TRACK 113 AUDIO
    TITLE "0:"
    INDEX 01 02:20:69
  TRACK 114 AUDIO
    TITLE "28:cjc023_6377"
    INDEX 01 02:21:65
  TRACK 115 AUDIO
    TITLE "0:"
    INDEX 01 02:23:03
  TRACK 116 AUDIO
    TITLE "29:cjc023_6378"
    INDEX 01 02:23:48
  TRACK 117 AUDIO
    TITLE "0:"
    INDEX 01 02:26:33
  TRACK 118 AUDIO
    TITLE "30:cjc023_6379"
    INDEX 01 02:26:58
  TRACK 119 AUDIO
    TITLE "0:"
    INDEX 01 02:29:74
  TRACK 120 AUDIO
    TITLE "31:cjc023_6380"
    INDEX 01 02:30:21
  TRACK 121 AUDIO
    TITLE "0:"
    INDEX 01 02:33:35
  TRACK 122 AUDIO
    TITLE "28:cjc023_6381"
    INDEX 01 02:34:34
  TRACK 123 AUDIO
    TITLE "0:"
    INDEX 01 02:35:53
  TRACK 124 AUDIO
    TITLE "29:cjc023_6382"
    INDEX 01 02:36:23
  TRACK 125 AUDIO
    TITLE "0:"
    INDEX 01 02:38:48
  TRACK 126 AUDIO
    TITLE "30:cjc023_6383"
    INDEX 01 02:38:71
  TRACK 127 AUDIO
    TITLE "0:"
    INDEX 01 02:41:07
  TRACK 128 AUDIO
    TITLE "31:cjc023_6384"
    INDEX 01 02:41:30
  TRACK 129 AUDIO
    TITLE "0:"
    INDEX 01 02:43:45
  TRACK 130 AUDIO
    TITLE "28:cjc023_6385"
    INDEX 01 02:44:40
  TRACK 131 AUDIO
    TITLE "0:"
    INDEX 01 02:45:50
  TRACK 132 AUDIO
    TITLE "29:cjc023_6386"
    INDEX 01 02:46:26
  TRACK 133 AUDIO
    TITLE "0:"
    INDEX 01 02:48:01
  TRACK 134 AUDIO
    TITLE "30:cjc023_6387"
    INDEX 01 02:48:19
  TRACK 135 AUDIO
    TITLE "0:"
    INDEX 01 02:49:67
  TRACK 136 AUDIO
    TITLE "31:cjc023_6388"
    INDEX 01 02:50:06
  TRACK 137 AUDIO
    TITLE "0:"
    INDEX 01 02:51:54
  TRACK 138 AUDIO
    TITLE "28:cjc023_6389"
    INDEX 01 02:52:48
  TRACK 139 AUDIO
    TITLE "0:"
    INDEX 01 02:53:73
  TRACK 140 AUDIO
    TITLE "29:cjc023_6390"
    INDEX 01 02:54:47
  TRACK 141 AUDIO
    TITLE "0:"
    INDEX 01 02:56:69
  TRACK 142 AUDIO
    TITLE "30:cjc023_6391"
    INDEX 01 02:57:16
  TRACK 143 AUDIO
    TITLE "0:"
    INDEX 01 02:59:34
  TRACK 144 AUDIO
    TITLE "31:cjc023_6392"
    INDEX 01 02:59:56
  TRACK 145 AUDIO
    TITLE "0:"
    INDEX 01 03:01:74
  TRACK 146 AUDIO
    TITLE "28:cjc023_6393"
    INDEX 01 03:02:72
  TRACK 147 AUDIO
    TITLE "0:"
    INDEX 01 03:04:00
  TRACK 148 AUDIO
    TITLE "29:cjc023_6394"
    INDEX 01 03:04:45
  TRACK 149 AUDIO
    TITLE "0:"
    INDEX 01 03:06:73
  TRACK 150 AUDIO
    TITLE "30:cjc023_6395"
    INDEX 01 03:07:20
  TRACK 151 AUDIO
    TITLE "0:"
    INDEX 01 03:09:23
  TRACK 152 AUDIO
    TITLE "31:cjc023_6396"
    INDEX 01 03:09:44
  TRACK 153 AUDIO
    TITLE "0:"
    INDEX 01 03:11:51
  TRACK 154 AUDIO
    TITLE "28:cjc023_6397"
    INDEX 01 03:12:47
  TRACK 155 AUDIO
    TITLE "0:"
    INDEX 01 03:13:56
  TRACK 156 AUDIO
    TITLE "29:cjc023_6398"
    INDEX 01 03:14:28
  TRACK 157 AUDIO
    TITLE "0:"
    INDEX 01 03:16:70
  TRACK 158 AUDIO
    TITLE "30:cjc023_6399"
    INDEX 01 03:17:18
  TRACK 159 AUDIO
    TITLE "0:"
    INDEX 01 03:19:60
  TRACK 160 AUDIO
    TITLE "31:cjc023_6400"
    INDEX 01 03:20:07
  TRACK 161 AUDIO
    TITLE "0:"
    INDEX 01 03:22:47
  TRACK 162 AUDIO
    TITLE "28:cjc023_6401"
    INDEX 01 03:23:40
  TRACK 163 AUDIO
    TITLE "0:"
    INDEX 01 03:25:08
  TRACK 164 AUDIO
    TITLE "29:cjc023_6402"
    INDEX 01 03:25:55
  TRACK 165 AUDIO
    TITLE "0:"
    INDEX 01 03:28:55
  TRACK 166 AUDIO
    TITLE "30:cjc023_6403"
    INDEX 01 03:29:06
  TRACK 167 AUDIO
    TITLE "0:"
    INDEX 01 03:31:24
  TRACK 168 AUDIO
    TITLE "31:cjc023_6404"
    INDEX 01 03:31:44
  TRACK 169 AUDIO
    TITLE "0:"
    INDEX 01 03:33:62
  TRACK 170 AUDIO
    TITLE "28:cjc023_6405"
    INDEX 01 03:34:58
  TRACK 171 AUDIO
    TITLE "0:"
    INDEX 01 03:36:00
  TRACK 172 AUDIO
    TITLE "29:cjc023_6406"
    INDEX 01 03:36:49
  TRACK 173 AUDIO
    TITLE "0:"
    INDEX 01 03:38:52
  TRACK 174 AUDIO
    TITLE "30:cjc023_6407"
    INDEX 01 03:39:00
  TRACK 175 AUDIO
    TITLE "0:"
    INDEX 01 03:40:59
  TRACK 176 AUDIO
    TITLE "31:cjc023_6408"
    INDEX 01 03:41:05
  TRACK 177 AUDIO
    TITLE "0:"
    INDEX 01 03:42:63
  TRACK 178 AUDIO
    TITLE "28:cjc023_6409"
    INDEX 01 03:43:61
  TRACK 179 AUDIO
    TITLE "0:"
    INDEX 01 03:45:21
  TRACK 180 AUDIO
    TITLE "29:cjc023_6410"
    INDEX 01 03:45:68
  TRACK 181 AUDIO
    TITLE "0:"
    INDEX 01 03:48:13
  TRACK 182 AUDIO
    TITLE "30:cjc023_6411"
    INDEX 01 03:48:36
  TRACK 183 AUDIO
    TITLE "0:"
    INDEX 01 03:50:51
  TRACK 184 AUDIO
    TITLE "31:cjc023_6412"
    INDEX 01 03:50:73
  TRACK 185 AUDIO
    TITLE "0:"
    INDEX 01 03:53:10
  TRACK 186 AUDIO
    TITLE "28:cjc023_6413"
    INDEX 01 03:54:14
  TRACK 187 AUDIO
    TITLE "0:"
    INDEX 01 03:55:29
  TRACK 188 AUDIO
    TITLE "29:cjc023_6414"
    INDEX 01 03:56:01
  TRACK 189 AUDIO
    TITLE "0:"
    INDEX 01 03:57:65
  TRACK 190 AUDIO
    TITLE "30:cjc023_6415"
    INDEX 01 03:58:11
  TRACK 191 AUDIO
    TITLE "0:"
    INDEX 01 04:00:02
  TRACK 192 AUDIO
    TITLE "31:cjc023_6416"
    INDEX 01 04:00:24
  TRACK 193 AUDIO
    TITLE "0:"
    INDEX 01 04:02:15
  TRACK 194 AUDIO
    TITLE "28:cjc023_6417"
    INDEX 01 04:03:11
  TRACK 195 AUDIO
    TITLE "0:"
    INDEX 01 04:04:20
  TRACK 196 AUDIO
    TITLE "29:cjc023_6418"
    INDEX 01 04:04:69
  TRACK 197 AUDIO
    TITLE "0:"
    INDEX 01 04:06:48
  TRACK 198 AUDIO
    TITLE "30:cjc023_6419"
    INDEX 01 04:06:72
  TRACK 199 AUDIO
    TITLE "0:"
    INDEX 01 04:08:72
  TRACK 200 AUDIO
    TITLE "31:cjc023_6420"
    INDEX 01 04:09:19
  TRACK 201 AUDIO
    TITLE "0:"
    INDEX 01 04:11:20
  TRACK 202 AUDIO
    TITLE "28:cjc023_6421"
    INDEX 01 04:12:15
  TRACK 203 AUDIO
    TITLE "0:"
    INDEX 01 04:13:50
  TRACK 204 AUDIO
    TITLE "29:cjc023_6422"
    INDEX 01 04:14:22
  TRACK 205 AUDIO
    TITLE "0:"
    INDEX 01 04:16:23
  TRACK 206 AUDIO
    TITLE "30:cjc023_6423"
    INDEX 01 04:16:47
  TRACK 207 AUDIO
    TITLE "0:"
    INDEX 01 04:18:26
  TRACK 208 AUDIO
    TITLE "31:cjc023_6424"
    INDEX 01 04:18:51
  TRACK 209 AUDIO
    TITLE "0:"
    INDEX 01 04:20:33
  TRACK 210 AUDIO
    TITLE "28:cjc023_6425"
    INDEX 01 04:21:30
  TRACK 211 AUDIO
    TITLE "0:"
    INDEX 01 04:22:47
  TRACK 212 AUDIO
    TITLE "29:cjc023_6426"
    INDEX 01 04:23:23
  TRACK 213 AUDIO
    TITLE "0:"
    INDEX 01 04:25:14
  TRACK 214 AUDIO
    TITLE "30:cjc023_6427"
    INDEX 01 04:25:36
  TRACK 215 AUDIO
    TITLE "0:"
    INDEX 01 04:27:37
  TRACK 216 AUDIO
    TITLE "31:cjc023_6428"
    INDEX 01 04:27:56
  TRACK 217 AUDIO
    TITLE "0:"
    INDEX 01 04:29:55
  TRACK 218 AUDIO
    TITLE "28:cjc023_6429"
    INDEX 01 04:30:51
  TRACK 219 AUDIO
    TITLE "0:"
    INDEX 01 04:32:08
  TRACK 220 AUDIO
    TITLE "29:cjc023_6430"
    INDEX 01 04:32:53
  TRACK 221 AUDIO
    TITLE "0:"
    INDEX 01 04:34:27
  TRACK 222 AUDIO
    TITLE "30:cjc023_6431"
    INDEX 01 04:34:50
  TRACK 223 AUDIO
    TITLE "0:"
    INDEX 01 04:37:31
  TRACK 224 AUDIO
    TITLE "31:cjc023_6432"
    INDEX 01 04:37:53
  TRACK 225 AUDIO
    TITLE "0:"
    INDEX 01 04:40:35
  TRACK 226 AUDIO
    TITLE "28:cjc023_6433"
    INDEX 01 04:41:31
  TRACK 227 AUDIO
    TITLE "0:"
    INDEX 01 04:42:52
  TRACK 228 AUDIO
    TITLE "29:cjc023_6434"
    INDEX 01 04:43:26
  TRACK 229 AUDIO
    TITLE "0:"
    INDEX 01 04:45:46
  TRACK 230 AUDIO
    TITLE "30:cjc023_6435"
    INDEX 01 04:45:66
  TRACK 231 AUDIO
    TITLE "0:"
    INDEX 01 04:48:07
  TRACK 232 AUDIO
    TITLE "31:cjc023_6436"
    INDEX 01 04:48:29
  TRACK 233 AUDIO
    TITLE "0:"
    INDEX 01 04:50:45
  TRACK 234 AUDIO
    TITLE "28:cjc023_6437"
    INDEX 01 04:51:41
  TRACK 235 AUDIO
    TITLE "0:"
    INDEX 01 04:52:60
  TRACK 236 AUDIO
    TITLE "29:cjc023_6438"
    INDEX 01 04:53:32
  TRACK 237 AUDIO
    TITLE "0:"
    INDEX 01 04:54:55
  TRACK 238 AUDIO
    TITLE "30:cjc023_6439"
    INDEX 01 04:55:03
  TRACK 239 AUDIO
    TITLE "0:"
    INDEX 01 04:56:71
  TRACK 240 AUDIO
    TITLE "31:cjc023_6440"
    INDEX 01 04:57:18
  TRACK 241 AUDIO
    TITLE "0:"
    INDEX 01 04:59:11
  TRACK 242 AUDIO
    TITLE "28:cjc023_6441"
    INDEX 01 05:00:09
  TRACK 243 AUDIO
    TITLE "0:"
    INDEX 01 05:01:41
  TRACK 244 AUDIO
    TITLE "29:cjc023_6442"
    INDEX 01 05:02:13
  TRACK 245 AUDIO
    TITLE "0:"
    INDEX 01 05:06:50
  TRACK 246 AUDIO
    TITLE "30:cjc023_6443"
    INDEX 01 05:07:01
  TRACK 247 AUDIO
    TITLE "0:"
    INDEX 01 05:11:36
  TRACK 248 AUDIO
    TITLE "31:cjc023_6444"
    INDEX 01 05:11:55
  TRACK 249 AUDIO
    TITLE "0:"
    INDEX 01 05:16:15
  TRACK 250 AUDIO
    TITLE "28:cjc023_6445"
    INDEX 01 05:17:11
  TRACK 251 AUDIO
    TITLE "0:"
    INDEX 01 05:18:16
  TRACK 252 AUDIO
    TITLE "29:cjc023_6446"
    INDEX 01 05:18:61
  TRACK 253 AUDIO
    TITLE "0:"
    INDEX 01 05:22:12
  TRACK 254 AUDIO
    TITLE "30:cjc023_6447"
    INDEX 01 05:22:38
  TRACK 255 AUDIO
    TITLE "0:"
    INDEX 01 05:24:68
  TRACK 256 AUDIO
    TITLE "31:cjc023_6448"
    INDEX 01 05:25:18
  TRACK 257 AUDIO
    TITLE "0:"
    INDEX 01 05:27:49
  TRACK 258 AUDIO
    TITLE "28:cjc023_6449"
    INDEX 01 05:28:46
  TRACK 259 AUDIO
    TITLE "0:"
    INDEX 01 05:29:61
  TRACK 260 AUDIO
    TITLE "29:cjc023_6450"
    INDEX 01 05:30:31
  TRACK 261 AUDIO
    TITLE "0:"
    INDEX 01 05:32:65
  TRACK 262 AUDIO
    TITLE "30:cjc023_6451"
    INDEX 01 05:33:14
  TRACK 263 AUDIO
    TITLE "0:"
    INDEX 01 05:35:54
  TRACK 264 AUDIO
    TITLE "31:cjc023_6452"
    INDEX 01 05:35:74
  TRACK 265 AUDIO
    TITLE "0:"
    INDEX 01 05:38:39
  TRACK 266 AUDIO
    TITLE "28:cjc023_6453"
    INDEX 01 05:39:34
  TRACK 267 AUDIO
    TITLE "0:"
    INDEX 01 05:40:59
  TRACK 268 AUDIO
    TITLE "29:cjc023_6454"
    INDEX 01 05:41:27
  TRACK 269 AUDIO
    TITLE "0:"
    INDEX 01 05:43:57
  TRACK 270 AUDIO
    TITLE "30:cjc023_6455"
    INDEX 01 05:44:06
  TRACK 271 AUDIO
    TITLE "0:"
    INDEX 01 05:46:26
  TRACK 272 AUDIO
    TITLE "31:cjc023_6456"
    INDEX 01 05:46:48
  TRACK 273 AUDIO
    TITLE "0:"
    INDEX 01 05:48:70
  TRACK 274 AUDIO
    TITLE "28:cjc023_6457"
    INDEX 01 05:49:66
  TRACK 275 AUDIO
    TITLE "0:"
    INDEX 01 05:51:10
  TRACK 276 AUDIO
    TITLE "29:cjc023_6458"
    INDEX 01 05:51:57
  TRACK 277 AUDIO
    TITLE "0:"
    INDEX 01 05:53:34
  TRACK 278 AUDIO
    TITLE "30:cjc023_6459"
    INDEX 01 05:53:56
  TRACK 279 AUDIO
    TITLE "0:"
    INDEX 01 05:55:64
  TRACK 280 AUDIO
    TITLE "31:cjc023_6460"
    INDEX 01 05:56:11
  TRACK 281 AUDIO
    TITLE "0:"
    INDEX 01 05:58:18
  TRACK 282 AUDIO
    TITLE "28:cjc023_6461"
    INDEX 01 05:59:15
  TRACK 283 AUDIO
    TITLE "0:"
    INDEX 01 06:00:30
  TRACK 284 AUDIO
    TITLE "29:cjc023_6462"
    INDEX 01 06:01:00
  TRACK 285 AUDIO
    TITLE "0:"
    INDEX 01 06:03:11
  TRACK 286 AUDIO
    TITLE "30:cjc023_6463"
    INDEX 01 06:03:37
  TRACK 287 AUDIO
    TITLE "0:"
    INDEX 01 06:05:61
  TRACK 288 AUDIO
    TITLE "31:cjc023_6464"
    INDEX 01 06:06:17
  TRACK 289 AUDIO
    TITLE "0:"
    INDEX 01 06:08:44
  TRACK 290 AUDIO
    TITLE "28:cjc023_6465"
    INDEX 01 06:09:49
  TRACK 291 AUDIO
    TITLE "0:"
    INDEX 01 06:10:60
  TRACK 292 AUDIO
    TITLE "29:cjc023_6466"
    INDEX 01 06:11:30
  TRACK 293 AUDIO
    TITLE "0:"
    INDEX 01 06:13:35
  TRACK 294 AUDIO
    TITLE "30:cjc023_6467"
    INDEX 01 06:13:57
  TRACK 295 AUDIO
    TITLE "0:"
    INDEX 01 06:15:42
  TRACK 296 AUDIO
    TITLE "31:cjc023_6468"
    INDEX 01 06:15:61
  TRACK 297 AUDIO
    TITLE "0:"
    INDEX 01 06:17:37
  TRACK 298 AUDIO
    TITLE "28:cjc023_6469"
    INDEX 01 06:18:40
  TRACK 299 AUDIO
    TITLE "0:"
    INDEX 01 06:19:55
  TRACK 300 AUDIO
    TITLE "29:cjc023_6470"
    INDEX 01 06:20:25
  TRACK 301 AUDIO
    TITLE "0:"
    INDEX 01 06:22:40
  TRACK 302 AUDIO
    TITLE "30:cjc023_6471"
    INDEX 01 06:22:63
  TRACK 303 AUDIO
    TITLE "0:"
    INDEX 01 06:24:56
  TRACK 304 AUDIO
    TITLE "31:cjc023_6472"
    INDEX 01 06:25:03
  TRACK 305 AUDIO
    TITLE "0:"
    INDEX 01 06:26:73
  TRACK 306 AUDIO
    TITLE "28:cjc023_6473"
    INDEX 01 06:27:68
  TRACK 307 AUDIO
    TITLE "0:"
    INDEX 01 06:29:24
  TRACK 308 AUDIO
    TITLE "29:cjc023_6474"
    INDEX 01 06:29:67
  TRACK 309 AUDIO
    TITLE "0:"
    INDEX 01 06:32:40
  TRACK 310 AUDIO
    TITLE "30:cjc023_6475"
    INDEX 01 06:32:62
  TRACK 311 AUDIO
    TITLE "0:"
    INDEX 01 06:35:46
  TRACK 312 AUDIO
    TITLE "31:cjc023_6476"
    INDEX 01 06:35:66
  TRACK 313 AUDIO
    TITLE "0:"
    INDEX 01 06:38:51
  TRACK 314 AUDIO
    TITLE "28:cjc023_6477"
    INDEX 01 06:39:46
  TRACK 315 AUDIO
    TITLE "0:"
    INDEX 01 06:40:48
  TRACK 316 AUDIO
    TITLE "29:cjc023_6478"
    INDEX 01 06:41:18
  TRACK 317 AUDIO
    TITLE "0:"
    INDEX 01 06:42:58
  TRACK 318 AUDIO
    TITLE "30:cjc023_6479"
    INDEX 01 06:43:03
  TRACK 319 AUDIO
    TITLE "0:"
    INDEX 01 06:44:69
  TRACK 320 AUDIO
    TITLE "31:cjc023_6480"
    INDEX 01 06:45:15
  TRACK 321 AUDIO
    TITLE "0:"
    INDEX 01 06:47:08
  TRACK 322 AUDIO
    TITLE "28:cjc023_6481"
    INDEX 01 06:48:04
  TRACK 323 AUDIO
    TITLE "0:"
    INDEX 01 06:49:17
  TRACK 324 AUDIO
    TITLE "29:cjc023_6482"
    INDEX 01 06:49:68
  TRACK 325 AUDIO
    TITLE "0:"
    INDEX 01 06:53:17
  TRACK 326 AUDIO
    TITLE "30:cjc023_6483"
    INDEX 01 06:53:44
  TRACK 327 AUDIO
    TITLE "0:"
    INDEX 01 06:56:70
  TRACK 328 AUDIO
    TITLE "31:cjc023_6484"
    INDEX 01 06:57:19
  TRACK 329 AUDIO
    TITLE "0:"
    INDEX 01 07:00:44
  TRACK 330 AUDIO
    TITLE "28:cjc023_6485"
    INDEX 01 07:01:42
  TRACK 331 AUDIO
    TITLE "0:"
    INDEX 01 07:03:03
  TRACK 332 AUDIO
    TITLE "29:cjc023_6486"
    INDEX 01 07:03:51
  TRACK 333 AUDIO
    TITLE "0:"
    INDEX 01 07:05:42
  TRACK 334 AUDIO
    TITLE "30:cjc023_6487"
    INDEX 01 07:05:63
  TRACK 335 AUDIO
    TITLE "0:"
    INDEX 01 07:08:36
  TRACK 336 AUDIO
    TITLE "31:cjc023_6488"
    INDEX 01 07:08:58
  TRACK 337 AUDIO
    TITLE "0:"
    INDEX 01 07:11:32
  TRACK 338 AUDIO
    TITLE "28:cjc023_6489"
    INDEX 01 07:12:28
  TRACK 339 AUDIO
    TITLE "0:"
    INDEX 01 07:13:49
  TRACK 340 AUDIO
    TITLE "29:cjc023_6490"
    INDEX 01 07:14:21
  TRACK 341 AUDIO
    TITLE "0:"
    INDEX 01 07:16:47
  TRACK 342 AUDIO
    TITLE "30:cjc023_6491"
    INDEX 01 07:16:69
  TRACK 343 AUDIO
    TITLE "0:"
    INDEX 01 07:19:06
  TRACK 344 AUDIO
    TITLE "31:cjc023_6492"
    INDEX 01 07:19:28
  TRACK 345 AUDIO
    TITLE "0:"
    INDEX 01 07:21:43
  TRACK 346 AUDIO
    TITLE "28:cjc023_6493"
    INDEX 01 07:22:40
  TRACK 347 AUDIO
    TITLE "0:"
    INDEX 01 07:23:55
  TRACK 348 AUDIO
    TITLE "29:cjc023_6494"
    INDEX 01 07:24:25
  TRACK 349 AUDIO
    TITLE "0:"
    INDEX 01 07:26:73
  TRACK 350 AUDIO
    TITLE "30:cjc023_6495"
    INDEX 01 07:27:22
  TRACK 351 AUDIO
    TITLE "0:"
    INDEX 01 07:29:44
  TRACK 352 AUDIO
    TITLE "31:cjc023_6496"
    INDEX 01 07:29:66
  TRACK 353 AUDIO
    TITLE "0:"
    INDEX 01 07:32:13
  TRACK 354 AUDIO
    TITLE "28:cjc023_6497"
    INDEX 01 07:33:09
  TRACK 355 AUDIO
    TITLE "0:"
    INDEX 01 07:34:30
  TRACK 356 AUDIO
    TITLE "29:cjc023_6498"
    INDEX 01 07:35:02
  TRACK 357 AUDIO
    TITLE "0:"
    INDEX 01 07:38:29
  TRACK 358 AUDIO
    TITLE "30:cjc023_6499"
    INDEX 01 07:38:51
  TRACK 359 AUDIO
    TITLE "0:"
    INDEX 01 07:41:39
  TRACK 360 AUDIO
    TITLE "31:cjc023_6500"
    INDEX 01 07:41:61
  TRACK 361 AUDIO
    TITLE "0:"
    INDEX 01 07:44:49
  TRACK 362 AUDIO
    TITLE "28:cjc023_6501"
    INDEX 01 07:45:45
  TRACK 363 AUDIO
    TITLE "0:"
    INDEX 01 07:47:07
  TRACK 364 AUDIO
    TITLE "29:cjc023_6502"
    INDEX 01 07:47:52
  TRACK 365 AUDIO
    TITLE "0:"
    INDEX 01 07:49:51
  TRACK 366 AUDIO
    TITLE "30:cjc023_6503"
    INDEX 01 07:49:74
  TRACK 367 AUDIO
    TITLE "0:"
    INDEX 01 07:52:00
  TRACK 368 AUDIO
    TITLE "31:cjc023_6504"
    INDEX 01 07:52:24
  TRACK 369 AUDIO
    TITLE "0:"
    INDEX 01 07:54:26
  TRACK 370 AUDIO
    TITLE "28:cjc023_6505"
    INDEX 01 07:55:26
  TRACK 371 AUDIO
    TITLE "0:"
    INDEX 01 07:56:29
  TRACK 372 AUDIO
    TITLE "29:cjc023_6506"
    INDEX 01 07:57:05
  TRACK 373 AUDIO
    TITLE "0:"
    INDEX 01 07:59:31
  TRACK 374 AUDIO
    TITLE "30:cjc023_6507"
    INDEX 01 07:59:53
  TRACK 375 AUDIO
    TITLE "0:"
    INDEX 01 08:02:26
  TRACK 376 AUDIO
    TITLE "31:cjc023_6508"
    INDEX 01 08:02:45
  TRACK 377 AUDIO
    TITLE "0:"
    INDEX 01 08:05:18
  TRACK 378 AUDIO
    TITLE "28:cjc023_6509"
    INDEX 01 08:06:14
  TRACK 379 AUDIO
    TITLE "0:"
    INDEX 01 08:07:39
  TRACK 380 AUDIO
    TITLE "29:cjc023_6510"
    INDEX 01 08:08:11
  TRACK 381 AUDIO
    TITLE "0:"
    INDEX 01 08:09:65
  TRACK 382 AUDIO
    TITLE "30:cjc023_6511"
    INDEX 01 08:10:12
  TRACK 383 AUDIO
    TITLE "0:"
    INDEX 01 08:12:07
  TRACK 384 AUDIO
    TITLE "31:cjc023_6512"
    INDEX 01 08:12:28
  TRACK 385 AUDIO
    TITLE "0:"
    INDEX 01 08:14:25
  TRACK 386 AUDIO
    TITLE "28:cjc023_6513"
    INDEX 01 08:15:21
  TRACK 387 AUDIO
    TITLE "0:"
    INDEX 01 08:16:38
  TRACK 388 AUDIO
    TITLE "29:cjc023_6514"
    INDEX 01 08:17:08
  TRACK 389 AUDIO
    TITLE "0:"
    INDEX 01 08:19:50
  TRACK 390 AUDIO
    TITLE "30:cjc023_6515"
    INDEX 01 08:19:73
  TRACK 391 AUDIO
    TITLE "0:"
    INDEX 01 08:22:48
  TRACK 392 AUDIO
    TITLE "31:cjc023_6516"
    INDEX 01 08:22:70
  TRACK 393 AUDIO
    TITLE "0:"
    INDEX 01 08:25:45
  TRACK 394 AUDIO
    TITLE "28:cjc023_6517"
    INDEX 01 08:26:40
  TRACK 395 AUDIO
    TITLE "0:"
    INDEX 01 08:27:71
  TRACK 396 AUDIO
    TITLE "29:cjc023_6518"
    INDEX 01 08:28:43
  TRACK 397 AUDIO
    TITLE "0:"
    INDEX 01 08:30:52
  TRACK 398 AUDIO
    TITLE "30:cjc023_6519"
    INDEX 01 08:30:73
  TRACK 399 AUDIO
    TITLE "0:"
    INDEX 01 08:33:24
  TRACK 400 AUDIO
    TITLE "31:cjc023_6520"
    INDEX 01 08:33:46
  TRACK 401 AUDIO
    TITLE "0:"
    INDEX 01 08:35:72
  TRACK 402 AUDIO
    TITLE "28:cjc023_6521"
    INDEX 01 08:36:70
  TRACK 403 AUDIO
    TITLE "0:"
    INDEX 01 08:38:04
  TRACK 404 AUDIO
    TITLE "29:cjc023_6522"
    INDEX 01 08:38:55
  TRACK 405 AUDIO
    TITLE "0:"
    INDEX 01 08:41:02
  TRACK 406 AUDIO
    TITLE "30:cjc023_6523"
    INDEX 01 08:41:18
  TRACK 407 AUDIO
    TITLE "0:"
    INDEX 01 08:43:07
  TRACK 408 AUDIO
    TITLE "31:cjc023_6524"
    INDEX 01 08:43:23
  TRACK 409 AUDIO
    TITLE "0:"
    INDEX 01 08:45:12
  TRACK 410 AUDIO
    TITLE "28:cjc023_6525"
    INDEX 01 08:46:09
  TRACK 411 AUDIO
    TITLE "0:"
    INDEX 01 08:47:52
  TRACK 412 AUDIO
    TITLE "29:cjc023_6526"
    INDEX 01 08:48:22
  TRACK 413 AUDIO
    TITLE "0:"
    INDEX 01 08:50:19
  TRACK 414 AUDIO
    TITLE "30:cjc023_6527"
    INDEX 01 08:50:41
  TRACK 415 AUDIO
    TITLE "0:"
    INDEX 01 08:52:43
  TRACK 416 AUDIO
    TITLE "31:cjc023_6528"
    INDEX 01 08:52:63
  TRACK 417 AUDIO
    TITLE "0:"
    INDEX 01 08:54:66
  TRACK 418 AUDIO
    TITLE "28:cjc023_6529"
    INDEX 01 08:55:61
  TRACK 419 AUDIO
    TITLE "0:"
    INDEX 01 08:56:74
  TRACK 420 AUDIO
    TITLE "29:cjc023_6530"
    INDEX 01 08:57:48
  TRACK 421 AUDIO
    TITLE "0:"
    INDEX 01 08:59:14
  TRACK 422 AUDIO
    TITLE "30:cjc023_6531"
    INDEX 01 08:59:36
  TRACK 423 AUDIO
    TITLE "0:"
    INDEX 01 09:01:09
  TRACK 424 AUDIO
    TITLE "31:cjc023_6532"
    INDEX 01 09:01:31
  TRACK 425 AUDIO
    TITLE "0:"
    INDEX 01 09:03:04
  TRACK 426 AUDIO
    TITLE "28:cjc023_6533"
    INDEX 01 09:04:01
  TRACK 427 AUDIO
    TITLE "0:"
    INDEX 01 09:05:19
  TRACK 428 AUDIO
    TITLE "29:cjc023_6534"
    INDEX 01 09:05:66
  TRACK 429 AUDIO
    TITLE "0:"
    INDEX 01 09:08:58
  TRACK 430 AUDIO
    TITLE "30:cjc023_6535"
    INDEX 01 09:09:07
  TRACK 431 AUDIO
    TITLE "0:"
    INDEX 01 09:11:35
  TRACK 432 AUDIO
    TITLE "31:cjc023_6536"
    INDEX 01 09:11:56
  TRACK 433 AUDIO
    TITLE "0:"
    INDEX 01 09:14:10
  TRACK 434 AUDIO
    TITLE "28:cjc023_6537"
    INDEX 01 09:15:05
  TRACK 435 AUDIO
    TITLE "0:"
    INDEX 01 09:16:30
  TRACK 436 AUDIO
    TITLE "29:cjc023_6538"
    INDEX 01 09:17:02
  TRACK 437 AUDIO
    TITLE "0:"
    INDEX 01 09:19:72
  TRACK 438 AUDIO
    TITLE "30:cjc023_6539"
    INDEX 01 09:20:16
  TRACK 439 AUDIO
    TITLE "0:"
    INDEX 01 09:22:44
  TRACK 440 AUDIO
    TITLE "31:cjc023_6540"
    INDEX 01 09:22:68
  TRACK 441 AUDIO
    TITLE "0:"
    INDEX 01 09:25:21
  TRACK 442 AUDIO
    TITLE "28:cjc023_6541"
    INDEX 01 09:26:21
  TRACK 443 AUDIO
    TITLE "0:"
    INDEX 01 09:27:46
  TRACK 444 AUDIO
    TITLE "29:cjc023_6542"
    INDEX 01 09:28:18
  TRACK 445 AUDIO
    TITLE "0:"
    INDEX 01 09:29:58
  TRACK 446 AUDIO
    TITLE "30:cjc023_6543"
    INDEX 01 09:30:03
  TRACK 447 AUDIO
    TITLE "0:"
    INDEX 01 09:31:57
  TRACK 448 AUDIO
    TITLE "31:cjc023_6544"
    INDEX 01 09:32:04
  TRACK 449 AUDIO
    TITLE "0:"
    INDEX 01 09:33:58
  TRACK 450 AUDIO
    TITLE "28:cjc023_6545"
    INDEX 01 09:34:54
  TRACK 451 AUDIO
    TITLE "0:"
    INDEX 01 09:35:65
  TRACK 452 AUDIO
    TITLE "29:cjc023_6546"
    INDEX 01 09:36:35
  TRACK 453 AUDIO
    TITLE "0:"
    INDEX 01 09:38:43
  TRACK 454 AUDIO
    TITLE "30:cjc023_6547"
    INDEX 01 09:38:65
  TRACK 455 AUDIO
    TITLE "0:"
    INDEX 01 09:40:29
  TRACK 456 AUDIO
    TITLE "31:cjc023_6548"
    INDEX 01 09:40:52
  TRACK 457 AUDIO
    TITLE "0:"
    INDEX 01 09:42:16
  TRACK 458 AUDIO
    TITLE "28:cjc023_6549"
    INDEX 01 09:43:15
  TRACK 459 AUDIO
    TITLE "0:"
    INDEX 01 09:44:38
  TRACK 460 AUDIO
    TITLE "29:cjc023_6550"
    INDEX 01 09:45:08
  TRACK 461 AUDIO
    TITLE "0:"
    INDEX 01 09:46:51
  TRACK 462 AUDIO
    TITLE "30:cjc023_6551"
    INDEX 01 09:46:74
  TRACK 463 AUDIO
    TITLE "0:"
    INDEX 01 09:49:10
  TRACK 464 AUDIO
    TITLE "31:cjc023_6552"
    INDEX 01 09:49:32
  TRACK 465 AUDIO
    TITLE "0:"
    INDEX 01 09:51:44
  TRACK 466 AUDIO
    TITLE "28:cjc023_6553"
    INDEX 01 09:52:38
  TRACK 467 AUDIO
    TITLE "0:"
    INDEX 01 09:53:61
  TRACK 468 AUDIO
    TITLE "29:cjc023_6554"
    INDEX 01 09:54:35
  TRACK 469 AUDIO
    TITLE "0:"
    INDEX 01 09:57:04
  TRACK 470 AUDIO
    TITLE "30:cjc023_6555"
    INDEX 01 09:57:25
  TRACK 471 AUDIO
    TITLE "0:"
    INDEX 01 09:59:57
  TRACK 472 AUDIO
    TITLE "31:cjc023_6556"
    INDEX 01 10:00:06
  TRACK 473 AUDIO
    TITLE "0:"
    INDEX 01 10:02:38
  TRACK 474 AUDIO
    TITLE "28:cjc023_6557"
    INDEX 01 10:03:38
  TRACK 475 AUDIO
    TITLE "0:"
    INDEX 01 10:04:47
  TRACK 476 AUDIO
    TITLE "29:cjc023_6558"
    INDEX 01 10:05:27
  TRACK 477 AUDIO
    TITLE "0:"
    INDEX 01 10:07:24
  TRACK 478 AUDIO
    TITLE "30:cjc023_6559"
    INDEX 01 10:07:53
  TRACK 479 AUDIO
    TITLE "0:"
    INDEX 01 10:09:40
  TRACK 480 AUDIO
    TITLE "31:cjc023_6560"
    INDEX 01 10:09:66
  TRACK 481 AUDIO
    TITLE "0:"
    INDEX 01 10:11:51
  TRACK 482 AUDIO
    TITLE "28:cjc023_6561"
    INDEX 01 10:12:48
  TRACK 483 AUDIO
    TITLE "0:"
    INDEX 01 10:14:10
  TRACK 484 AUDIO
    TITLE "29:cjc023_6562"
    INDEX 01 10:14:59
  TRACK 485 AUDIO
    TITLE "0:"
    INDEX 01 10:16:40
  TRACK 486 AUDIO
    TITLE "30:cjc023_6563"
    INDEX 01 10:16:62
  TRACK 487 AUDIO
    TITLE "0:"
    INDEX 01 10:18:65
  TRACK 488 AUDIO
    TITLE "31:cjc023_6564"
    INDEX 01 10:19:15
  TRACK 489 AUDIO
    TITLE "0:"
    INDEX 01 10:21:18
  TRACK 490 AUDIO
    TITLE "28:cjc023_6565"
    INDEX 01 10:22:23
  TRACK 491 AUDIO
    TITLE "0:"
    INDEX 01 10:23:64
  TRACK 492 AUDIO
    TITLE "29:cjc023_6566"
    INDEX 01 10:24:36
  TRACK 493 AUDIO
    TITLE "0:"
    INDEX 01 10:26:11
  TRACK 494 AUDIO
    TITLE "30:cjc023_6567"
    INDEX 01 10:26:33
  TRACK 495 AUDIO
    TITLE "0:"
    INDEX 01 10:28:32
  TRACK 496 AUDIO
    TITLE "31:cjc023_6568"
    INDEX 01 10:28:55
  TRACK 497 AUDIO
    TITLE "0:"
    INDEX 01 10:30:56
  TRACK 498 AUDIO
    TITLE "28:cjc023_6569"
    INDEX 01 10:31:53
  TRACK 499 AUDIO
    TITLE "0:"
    INDEX 01 10:33:01
  TRACK 500 AUDIO
    TITLE "29:cjc023_6570"
    INDEX 01 10:33:48
  TRACK 501 AUDIO
    TITLE "0:"
    INDEX 01 10:36:02
  TRACK 502 AUDIO
    TITLE "30:cjc023_6571"
    INDEX 01 10:36:23
  TRACK 503 AUDIO
    TITLE "0:"
    INDEX 01 10:38:36
  TRACK 504 AUDIO
    TITLE "31:cjc023_6572"
    INDEX 01 10:38:61
  TRACK 505 AUDIO
    TITLE "0:"
    INDEX 01 10:40:72
  TRACK 506 AUDIO
    TITLE "28:cjc023_6573"
    INDEX 01 10:41:71
  TRACK 507 AUDIO
    TITLE "0:"
    INDEX 01 10:43:19
  TRACK 508 AUDIO
    TITLE "29:cjc023_6574"
    INDEX 01 10:43:66
  TRACK 509 AUDIO
    TITLE "0:"
    INDEX 01 10:45:40
  TRACK 510 AUDIO
    TITLE "30:cjc023_6575"
    INDEX 01 10:45:63
  TRACK 511 AUDIO
    TITLE "0:"
    INDEX 01 10:47:52
  TRACK 512 AUDIO
    TITLE "31:cjc023_6576"
    INDEX 01 10:48:01
  TRACK 513 AUDIO
    TITLE "0:"
    INDEX 01 10:49:65
  TRACK 514 AUDIO
    TITLE "28:cjc023_6577"
    INDEX 01 10:50:61
  TRACK 515 AUDIO
    TITLE "0:"
    INDEX 01 10:52:01
  TRACK 516 AUDIO
    TITLE "29:cjc023_6578"
    INDEX 01 10:52:48
  TRACK 517 AUDIO
    TITLE "0:"
    INDEX 01 10:54:00
  TRACK 518 AUDIO
    TITLE "30:cjc023_6579"
    INDEX 01 10:54:17
  TRACK 519 AUDIO
    TITLE "0:"
    INDEX 01 10:55:74
  TRACK 520 AUDIO
    TITLE "31:cjc023_6580"
    INDEX 01 10:56:20
  TRACK 521 AUDIO
    TITLE "0:"
    INDEX 01 10:57:74
  TRACK 522 AUDIO
    TITLE "28:cjc023_6581"
    INDEX 01 10:58:74
  TRACK 523 AUDIO
    TITLE "0:"
    INDEX 01 11:00:24
  TRACK 524 AUDIO
    TITLE "29:cjc023_6582"
    INDEX 01 11:00:73
  TRACK 525 AUDIO
    TITLE "0:"
    INDEX 01 11:03:34
  TRACK 526 AUDIO
    TITLE "30:cjc023_6583"
    INDEX 01 11:03:55
  TRACK 527 AUDIO
    TITLE "0:"
    INDEX 01 11:06:56
  TRACK 528 AUDIO
    TITLE "31:cjc023_6584"
    INDEX 01 11:07:04
  TRACK 529 AUDIO
    TITLE "0:"
    INDEX 01 11:10:03
  TRACK 530 AUDIO
    TITLE "28:cjc023_6585"
    INDEX 01 11:11:00
  TRACK 531 AUDIO
    TITLE "0:"
    INDEX 01 11:12:48
  TRACK 532 AUDIO
    TITLE "29:cjc023_6586"
    INDEX 01 11:13:19
  TRACK 533 AUDIO
    TITLE "0:"
    INDEX 01 11:15:04
  TRACK 534 AUDIO
    TITLE "30:cjc023_6587"
    INDEX 01 11:15:25
  TRACK 535 AUDIO
    TITLE "0:"
    INDEX 01 11:17:61
  TRACK 536 AUDIO
    TITLE "31:cjc023_6588"
    INDEX 01 11:18:06
  TRACK 537 AUDIO
    TITLE "0:"
    INDEX 01 11:20:40
  TRACK 538 AUDIO
    TITLE "28:cjc023_6589"
    INDEX 01 11:21:36
  TRACK 539 AUDIO
    TITLE "0:"
    INDEX 01 11:22:51
  TRACK 540 AUDIO
    TITLE "29:cjc023_6590"
    INDEX 01 11:23:23
  TRACK 541 AUDIO
    TITLE "0:"
    INDEX 01 11:24:73
  TRACK 542 AUDIO
    TITLE "30:cjc023_6591"
    INDEX 01 11:25:22
  TRACK 543 AUDIO
    TITLE "0:"
    INDEX 01 11:27:05
  TRACK 544 AUDIO
    TITLE "31:cjc023_6592"
    INDEX 01 11:27:27
  TRACK 545 AUDIO
    TITLE "0:"
    INDEX 01 11:29:10
  TRACK 546 AUDIO
    TITLE "28:cjc023_6593"
    INDEX 01 11:30:05
  TRACK 547 AUDIO
    TITLE "0:"
    INDEX 01 11:31:26
  TRACK 548 AUDIO
    TITLE "29:cjc023_6594"
    INDEX 01 11:31:73
  TRACK 549 AUDIO
    TITLE "0:"
    INDEX 01 11:33:74
  TRACK 550 AUDIO
    TITLE "30:cjc023_6595"
    INDEX 01 11:34:23
  TRACK 551 AUDIO
    TITLE "0:"
    INDEX 01 11:36:41
  TRACK 552 AUDIO
    TITLE "31:cjc023_6596"
    INDEX 01 11:36:69
  TRACK 553 AUDIO
    TITLE "0:"
    INDEX 01 11:39:12
  TRACK 554 AUDIO
    TITLE "28:cjc023_6597"
    INDEX 01 11:40:13
  TRACK 555 AUDIO
    TITLE "0:"
    INDEX 01 11:41:29
  TRACK 556 AUDIO
    TITLE "29:cjc023_6598"
    INDEX 01 11:42:01
  TRACK 557 AUDIO
    TITLE "0:"
    INDEX 01 11:45:07
  TRACK 558 AUDIO
    TITLE "30:cjc023_6599"
    INDEX 01 11:45:28
  TRACK 559 AUDIO
    TITLE "0:"
    INDEX 01 11:47:61
  TRACK 560 AUDIO
    TITLE "31:cjc023_6600"
    INDEX 01 11:48:05
  TRACK 561 AUDIO
    TITLE "0:"
    INDEX 01 11:50:37
  TRACK 562 AUDIO
    TITLE "28:cjc023_6601"
    INDEX 01 11:51:35
  TRACK 563 AUDIO
    TITLE "0:"
    INDEX 01 11:52:58
  TRACK 564 AUDIO
    TITLE "29:cjc023_6602"
    INDEX 01 11:53:30
  TRACK 565 AUDIO
    TITLE "0:"
    INDEX 01 11:55:09
  TRACK 566 AUDIO
    TITLE "30:cjc023_6603"
    INDEX 01 11:55:27
  TRACK 567 AUDIO
    TITLE "0:"
    INDEX 01 11:57:04
  TRACK 568 AUDIO
    TITLE "31:cjc023_6604"
    INDEX 01 11:57:22
  TRACK 569 AUDIO
    TITLE "0:"
    INDEX 01 11:58:74
  TRACK 570 AUDIO
    TITLE "28:cjc023_6605"
    INDEX 01 11:59:72
  TRACK 571 AUDIO
    TITLE "0:"
    INDEX 01 12:01:12
  TRACK 572 AUDIO
    TITLE "29:cjc023_6606"
    INDEX 01 12:01:63
  TRACK 573 AUDIO
    TITLE "0:"
    INDEX 01 12:04:61
  TRACK 574 AUDIO
    TITLE "30:cjc023_6607"
    INDEX 01 12:05:09
  TRACK 575 AUDIO
    TITLE "0:"
    INDEX 01 12:08:00
  TRACK 576 AUDIO
    TITLE "31:cjc023_6608"
    INDEX 01 12:08:22
  TRACK 577 AUDIO
    TITLE "0:"
    INDEX 01 12:11:12
  TRACK 578 AUDIO
    TITLE "28:cjc023_6609"
    INDEX 01 12:12:10
  TRACK 579 AUDIO
    TITLE "0:"
    INDEX 01 12:13:33
  TRACK 580 AUDIO
    TITLE "29:cjc023_6610"
    INDEX 01 12:14:05
  TRACK 581 AUDIO
    TITLE "0:"
    INDEX 01 12:16:21
  TRACK 582 AUDIO
    TITLE "30:cjc023_6611"
    INDEX 01 12:16:43
  TRACK 583 AUDIO
    TITLE "0:"
    INDEX 01 12:18:42
  TRACK 584 AUDIO
    TITLE "31:cjc023_6612"
    INDEX 01 12:18:63
  TRACK 585 AUDIO
    TITLE "0:"
    INDEX 01 12:20:62
  TRACK 586 AUDIO
    TITLE "28:cjc023_6613"
    INDEX 01 12:21:57
  TRACK 587 AUDIO
    TITLE "0:"
    INDEX 01 12:22:73
  TRACK 588 AUDIO
    TITLE "29:cjc023_6614"
    INDEX 01 12:23:41
  TRACK 589 AUDIO
    TITLE "0:"
    INDEX 01 12:26:31
  TRACK 590 AUDIO
    TITLE "30:cjc023_6615"
    INDEX 01 12:26:49
  TRACK 591 AUDIO
    TITLE "0:"
    INDEX 01 12:28:54
  TRACK 592 AUDIO
    TITLE "31:cjc023_6616"
    INDEX 01 12:28:73
  TRACK 593 AUDIO
    TITLE "0:"
    INDEX 01 12:31:01
  TRACK 594 AUDIO
    TITLE "28:cjc023_6617"
    INDEX 01 12:31:74
  TRACK 595 AUDIO
    TITLE "0:"
    INDEX 01 12:33:29
  TRACK 596 AUDIO
    TITLE "29:cjc023_6618"
    INDEX 01 12:34:01
  TRACK 597 AUDIO
    TITLE "0:"
    INDEX 01 12:35:71
  TRACK 598 AUDIO
    TITLE "30:cjc023_6619"
    INDEX 01 12:36:18
  TRACK 599 AUDIO
    TITLE "0:"
    INDEX 01 12:38:38
  TRACK 600 AUDIO
    TITLE "31:cjc023_6620"
    INDEX 01 12:38:58
  TRACK 601 AUDIO
    TITLE "0:"
    INDEX 01 12:41:03
  TRACK 602 AUDIO
    TITLE "28:cjc023_6621"
    INDEX 01 12:41:74
  TRACK 603 AUDIO
    TITLE "0:"
    INDEX 01 12:43:24
  TRACK 604 AUDIO
    TITLE "29:cjc023_6622"
    INDEX 01 12:43:71
  TRACK 605 AUDIO
    TITLE "0:"
    INDEX 01 12:45:48
  TRACK 606 AUDIO
    TITLE "30:cjc023_6623"
    INDEX 01 12:45:70
  TRACK 607 AUDIO
    TITLE "0:"
    INDEX 01 12:47:65
  TRACK 608 AUDIO
    TITLE "31:cjc023_6624"
    INDEX 01 12:48:13
  TRACK 609 AUDIO
    TITLE "0:"
    INDEX 01 12:50:06
  TRACK 610 AUDIO
    TITLE "28:cjc023_6625"
    INDEX 01 12:51:04
  TRACK 611 AUDIO
    TITLE "0:"
    INDEX 01 12:52:31
  TRACK 612 AUDIO
    TITLE "29:cjc023_6626"
    INDEX 01 12:53:03
  TRACK 613 AUDIO
    TITLE "0:"
    INDEX 01 12:54:49
  TRACK 614 AUDIO
    TITLE "30:cjc023_6627"
    INDEX 01 12:54:71
  TRACK 615 AUDIO
    TITLE "0:"
    INDEX 01 12:56:73
  TRACK 616 AUDIO
    TITLE "31:cjc023_6628"
    INDEX 01 12:57:18
  TRACK 617 AUDIO
    TITLE "0:"
    INDEX 01 12:59:21
  TRACK 618 AUDIO
    TITLE "28:cjc023_6629"
    INDEX 01 13:00:16
  TRACK 619 AUDIO
    TITLE "0:"
    INDEX 01 13:01:30
  TRACK 620 AUDIO
    TITLE "29:cjc023_6630"
    INDEX 01 13:02:06
  TRACK 621 AUDIO
    TITLE "0:"
    INDEX 01 13:06:27
  TRACK 622 AUDIO
    TITLE "30:cjc023_6631"
    INDEX 01 13:06:46
  TRACK 623 AUDIO
    TITLE "0:"
    INDEX 01 13:10:19
  TRACK 624 AUDIO
    TITLE "31:cjc023_6632"
    INDEX 01 13:10:38
  TRACK 625 AUDIO
    TITLE "0:"
    INDEX 01 13:14:11
  TRACK 626 AUDIO
    TITLE "28:cjc023_6633"
    INDEX 01 13:15:08
  TRACK 627 AUDIO
    TITLE "0:"
    INDEX 01 13:16:29
  TRACK 628 AUDIO
    TITLE "29:cjc023_6634"
    INDEX 01 13:16:74
  TRACK 629 AUDIO
    TITLE "0:"
    INDEX 01 13:18:55
  TRACK 630 AUDIO
    TITLE "30:cjc023_6635"
    INDEX 01 13:19:00
  TRACK 631 AUDIO
    TITLE "0:"
    INDEX 01 13:20:64
  TRACK 632 AUDIO
    TITLE "31:cjc023_6636"
    INDEX 01 13:21:11
  TRACK 633 AUDIO
    TITLE "0:"
    INDEX 01 13:23:00
  TRACK 634 AUDIO
    TITLE "28:cjc023_6637"
    INDEX 01 13:23:70
  TRACK 635 AUDIO
    TITLE "0:"
    INDEX 01 13:25:18
  TRACK 636 AUDIO
    TITLE "29:cjc023_6638"
    INDEX 01 13:25:63
  TRACK 637 AUDIO
    TITLE "0:"
    INDEX 01 13:27:45
  TRACK 638 AUDIO
    TITLE "30:cjc023_6639"
    INDEX 01 13:27:66
  TRACK 639 AUDIO
    TITLE "0:"
    INDEX 01 13:29:65
  TRACK 640 AUDIO
    TITLE "31:cjc023_6640"
    INDEX 01 13:30:12
  TRACK 641 AUDIO
    TITLE "0:"
    INDEX 01 13:32:11
  TRACK 642 AUDIO
    TITLE "28:cjc023_6641"
    INDEX 01 13:33:08
  TRACK 643 AUDIO
    TITLE "0:"
    INDEX 01 13:34:19
  TRACK 644 AUDIO
    TITLE "29:cjc023_6642"
    INDEX 01 13:34:68
  TRACK 645 AUDIO
    TITLE "0:"
    INDEX 01 13:37:59
  TRACK 646 AUDIO
    TITLE "30:cjc023_6643"
    INDEX 01 13:38:09
  TRACK 647 AUDIO
    TITLE "0:"
    INDEX 01 13:41:53
  TRACK 648 AUDIO
    TITLE "31:cjc023_6644"
    INDEX 01 13:41:74
  TRACK 649 AUDIO
    TITLE "0:"
    INDEX 01 13:45:43
  TRACK 650 AUDIO
    TITLE "28:cjc023_6645"
    INDEX 01 13:46:38
  TRACK 651 AUDIO
    TITLE "0:"
    INDEX 01 13:47:53
  TRACK 652 AUDIO
    TITLE "29:cjc023_6646"
    INDEX 01 13:48:23
  TRACK 653 AUDIO
    TITLE "0:"
    INDEX 01 13:50:28
  TRACK 654 AUDIO
    TITLE "30:cjc023_6647"
    INDEX 01 13:50:48
  TRACK 655 AUDIO
    TITLE "0:"
    INDEX 01 13:52:48
  TRACK 656 AUDIO
    TITLE "31:cjc023_6648"
    INDEX 01 13:52:70
  TRACK 657 AUDIO
    TITLE "0:"
    INDEX 01 13:54:71
  TRACK 658 AUDIO
    TITLE "28:cjc023_6649"
    INDEX 01 13:55:68
  TRACK 659 AUDIO
    TITLE "0:"
    INDEX 01 13:57:16
  TRACK 660 AUDIO
    TITLE "29:cjc023_6650"
    INDEX 01 13:57:63
  TRACK 661 AUDIO
    TITLE "0:"
    INDEX 01 14:00:52
  TRACK 662 AUDIO
    TITLE "30:cjc023_6651"
    INDEX 01 14:01:00
  TRACK 663 AUDIO
    TITLE "0:"
    INDEX 01 14:03:56
  TRACK 664 AUDIO
    TITLE "31:cjc023_6652"
    INDEX 01 14:04:01
  TRACK 665 AUDIO
    TITLE "0:"
    INDEX 01 14:06:54
  TRACK 666 AUDIO
    TITLE "28:cjc023_6653"
    INDEX 01 14:07:50
  TRACK 667 AUDIO
    TITLE "0:"
    INDEX 01 14:09:04
  TRACK 668 AUDIO
    TITLE "29:cjc023_6654"
    INDEX 01 14:09:51
  TRACK 669 AUDIO
    TITLE "0:"
    INDEX 01 14:12:14
  TRACK 670 AUDIO
    TITLE "30:cjc023_6655"
    INDEX 01 14:12:36
  TRACK 671 AUDIO
    TITLE "0:"
    INDEX 01 14:14:68
  TRACK 672 AUDIO
    TITLE "31:cjc023_6656"
    INDEX 01 14:15:12
  TRACK 673 AUDIO
    TITLE "0:"
    INDEX 01 14:17:45
  TRACK 674 AUDIO
    TITLE "28:cjc023_6657"
    INDEX 01 14:18:38
  TRACK 675 AUDIO
    TITLE "0:"
    INDEX 01 14:19:51
  TRACK 676 AUDIO
    TITLE "29:cjc023_6658"
    INDEX 01 14:20:23
  TRACK 677 AUDIO
    TITLE "0:"
    INDEX 01 14:22:32
  TRACK 678 AUDIO
    TITLE "30:cjc023_6659"
    INDEX 01 14:22:55
  TRACK 679 AUDIO
    TITLE "0:"
    INDEX 01 14:24:35
  TRACK 680 AUDIO
    TITLE "31:cjc023_6660"
    INDEX 01 14:24:58
  TRACK 681 AUDIO
    TITLE "0:"
    INDEX 01 14:26:38
  TRACK 682 AUDIO
    TITLE "28:cjc023_6661"
    INDEX 01 14:27:35
  TRACK 683 AUDIO
    TITLE "0:"
    INDEX 01 14:28:74
  TRACK 684 AUDIO
    TITLE "29:cjc023_6662"
    INDEX 01 14:29:46
  TRACK 685 AUDIO
    TITLE "0:"
    INDEX 01 14:31:60
  TRACK 686 AUDIO
    TITLE "30:cjc023_6663"
    INDEX 01 14:32:05
  TRACK 687 AUDIO
    TITLE "0:"
    INDEX 01 14:35:09
  TRACK 688 AUDIO
    TITLE "31:cjc023_6664"
    INDEX 01 14:35:29
  TRACK 689 AUDIO
    TITLE "0:"
    INDEX 01 14:38:31
  TRACK 690 AUDIO
    TITLE "28:cjc023_6665"
    INDEX 01 14:39:30
  TRACK 691 AUDIO
    TITLE "0:"
    INDEX 01 14:40:51
  TRACK 692 AUDIO
    TITLE "29:cjc023_6666"
    INDEX 01 14:41:23
  TRACK 693 AUDIO
    TITLE "0:"
    INDEX 01 14:43:44
  TRACK 694 AUDIO
    TITLE "30:cjc023_6667"
    INDEX 01 14:43:63
  TRACK 695 AUDIO
    TITLE "0:"
    INDEX 01 14:45:74
  TRACK 696 AUDIO
    TITLE "31:cjc023_6668"
    INDEX 01 14:46:21
  TRACK 697 AUDIO
    TITLE "0:"
    INDEX 01 14:48:31
  TRACK 698 AUDIO
    TITLE "28:cjc023_6669"
    INDEX 01 14:49:29
  TRACK 699 AUDIO
    TITLE "0:"
    INDEX 01 14:50:60
  TRACK 700 AUDIO
    TITLE "29:cjc023_6670"
    INDEX 01 14:51:32
  TRACK 701 AUDIO
    TITLE "0:"
    INDEX 01 14:53:40
  TRACK 702 AUDIO
    TITLE "30:cjc023_6671"
    INDEX 01 14:53:64
  TRACK 703 AUDIO
    TITLE "0:"
    INDEX 01 14:56:07
  TRACK 704 AUDIO
    TITLE "31:cjc023_6672"
    INDEX 01 14:56:31
  TRACK 705 AUDIO
    TITLE "0:"
    INDEX 01 14:58:49
  TRACK 706 AUDIO
    TITLE "28:cjc023_6673"
    INDEX 01 14:59:49
  TRACK 707 AUDIO
    TITLE "0:"
    INDEX 01 15:01:03
  TRACK 708 AUDIO
    TITLE "29:cjc023_6674"
    INDEX 01 15:01:50
  TRACK 709 AUDIO
    TITLE "0:"
    INDEX 01 15:04:21
  TRACK 710 AUDIO
    TITLE "30:cjc023_6675"
    INDEX 01 15:04:40
  TRACK 711 AUDIO
    TITLE "0:"
    INDEX 01 15:06:72
  TRACK 712 AUDIO
    TITLE "31:cjc023_6676"
    INDEX 01 15:07:21
  TRACK 713 AUDIO
    TITLE "0:"
    INDEX 01 15:09:51
  TRACK 714 AUDIO
    TITLE "28:cjc023_6677"
    INDEX 01 15:10:53
  TRACK 715 AUDIO
    TITLE "0:"
    INDEX 01 15:11:66
  TRACK 716 AUDIO
    TITLE "29:cjc023_6678"
    INDEX 01 15:12:38
  TRACK 717 AUDIO
    TITLE "0:"
    INDEX 01 15:14:19
  TRACK 718 AUDIO
    TITLE "30:cjc023_6679"
    INDEX 01 15:14:42
  TRACK 719 AUDIO
    TITLE "0:"
    INDEX 01 15:16:30
  TRACK 720 AUDIO
    TITLE "31:cjc023_6680"
    INDEX 01 15:16:51
  TRACK 721 AUDIO
    TITLE "0:"
    INDEX 01 15:18:40
  TRACK 722 AUDIO
    TITLE "28:cjc023_6681"
    INDEX 01 15:19:36
  TRACK 723 AUDIO
    TITLE "0:"
    INDEX 01 15:20:59
  TRACK 724 AUDIO
    TITLE "29:cjc023_6682"
    INDEX 01 15:21:31
  TRACK 725 AUDIO
    TITLE "0:"
    INDEX 01 15:23:49
  TRACK 726 AUDIO
    TITLE "30:cjc023_6683"
    INDEX 01 15:23:65
  TRACK 727 AUDIO
    TITLE "0:"
    INDEX 01 15:25:62
  TRACK 728 AUDIO
    TITLE "31:cjc023_6684"
    INDEX 01 15:26:03
  TRACK 729 AUDIO
    TITLE "0:"
    INDEX 01 15:28:00
  TRACK 730 AUDIO
    TITLE "28:cjc023_6685"
    INDEX 01 15:28:68
  TRACK 731 AUDIO
    TITLE "0:"
    INDEX 01 15:30:18
  TRACK 732 AUDIO
    TITLE "29:cjc023_6686"
    INDEX 01 15:30:63
  TRACK 733 AUDIO
    TITLE "0:"
    INDEX 01 15:33:38
  TRACK 734 AUDIO
    TITLE "30:cjc023_6687"
    INDEX 01 15:33:61
  TRACK 735 AUDIO
    TITLE "0:"
    INDEX 01 15:35:51
  TRACK 736 AUDIO
    TITLE "31:cjc023_6688"
    INDEX 01 15:35:70
  TRACK 737 AUDIO
    TITLE "0:"
    INDEX 01 15:37:59
  TRACK 738 AUDIO
    TITLE "28:cjc023_6689"
    INDEX 01 15:38:57
  TRACK 739 AUDIO
    TITLE "0:"
    INDEX 01 15:39:48
  TRACK 740 AUDIO
    TITLE "29:cjc023_6690"
    INDEX 01 15:40:22
  TRACK 741 AUDIO
    TITLE "0:"
    INDEX 01 15:42:31
  TRACK 742 AUDIO
    TITLE "30:cjc023_6691"
    INDEX 01 15:42:53
  TRACK 743 AUDIO
    TITLE "0:"
    INDEX 01 15:44:00
  TRACK 744 AUDIO
    TITLE "31:cjc023_6692"
    INDEX 01 15:44:20
  TRACK 745 AUDIO
    TITLE "0:"
    INDEX 01 15:45:41
  TRACK 746 AUDIO
    TITLE "28:cjc023_6693"
    INDEX 01 15:46:39
  TRACK 747 AUDIO
    TITLE "0:"
    INDEX 01 15:47:50
  TRACK 748 AUDIO
    TITLE "29:cjc023_6694"
    INDEX 01 15:48:24
  TRACK 749 AUDIO
    TITLE "0:"
    INDEX 01 15:49:74
  TRACK 750 AUDIO
    TITLE "30:cjc023_6695"
    INDEX 01 15:50:21
  TRACK 751 AUDIO
    TITLE "0:"
    INDEX 01 15:51:67
  TRACK 752 AUDIO
    TITLE "31:cjc023_6696"
    INDEX 01 15:52:14
  TRACK 753 AUDIO
    TITLE "0:"
    INDEX 01 15:53:60
  TRACK 754 AUDIO
    TITLE "28:cjc023_6697"
    INDEX 01 15:54:56
  TRACK 755 AUDIO
    TITLE "0:"
    INDEX 01 15:56:02
  TRACK 756 AUDIO
    TITLE "29:cjc023_6698"
    INDEX 01 15:56:49
  TRACK 757 AUDIO
    TITLE "0:"
    INDEX 01 15:58:46
  TRACK 758 AUDIO
    TITLE "30:cjc023_6699"
    INDEX 01 15:58:69
  TRACK 759 AUDIO
    TITLE "0:"
    INDEX 01 16:00:60
  TRACK 760 AUDIO
    TITLE "31:cjc023_6700"
    INDEX 01 16:01:05
  TRACK 761 AUDIO
    TITLE "0:"
    INDEX 01 16:02:73
  TRACK 762 AUDIO
    TITLE "28:cjc023_6701"
    INDEX 01 16:03:68
  TRACK 763 AUDIO
    TITLE "0:"
    INDEX 01 16:05:05
  TRACK 764 AUDIO
    TITLE "29:cjc023_6702"
    INDEX 01 16:05:56
  TRACK 765 AUDIO
    TITLE "0:"
    INDEX 01 16:07:35
  TRACK 766 AUDIO
    TITLE "30:cjc023_6703"
    INDEX 01 16:07:56
  TRACK 767 AUDIO
    TITLE "0:"
    INDEX 01 16:09:36
  TRACK 768 AUDIO
    TITLE "31:cjc023_6704"
    INDEX 01 16:09:59
  TRACK 769 AUDIO
    TITLE "0:"
    INDEX 01 16:11:39
  TRACK 770 AUDIO
    TITLE "28:cjc023_6705"
    INDEX 01 16:12:36
  TRACK 771 AUDIO
    TITLE "0:"
    INDEX 01 16:13:53
  TRACK 772 AUDIO
    TITLE "29:cjc023_6706"
    INDEX 01 16:14:23
  TRACK 773 AUDIO
    TITLE "0:"
    INDEX 01 16:17:10
  TRACK 774 AUDIO
    TITLE "30:cjc023_6707"
    INDEX 01 16:17:31
  TRACK 775 AUDIO
    TITLE "0:"
    INDEX 01 16:19:40
  TRACK 776 AUDIO
    TITLE "31:cjc023_6708"
    INDEX 01 16:19:63
  TRACK 777 AUDIO
    TITLE "0:"
    INDEX 01 16:21:72
  TRACK 778 AUDIO
    TITLE "28:cjc023_6709"
    INDEX 01 16:22:70
  TRACK 779 AUDIO
    TITLE "0:"
    INDEX 01 16:24:06
  TRACK 780 AUDIO
    TITLE "29:cjc023_6710"
    INDEX 01 16:24:51
  TRACK 781 AUDIO
    TITLE "0:"
    INDEX 01 16:27:00
  TRACK 782 AUDIO
    TITLE "30:cjc023_6711"
    INDEX 01 16:27:20
  TRACK 783 AUDIO
    TITLE "0:"
    INDEX 01 16:29:54
  TRACK 784 AUDIO
    TITLE "31:cjc023_6712"
    INDEX 01 16:30:01
  TRACK 785 AUDIO
    TITLE "0:"
    INDEX 01 16:32:35
  TRACK 786 AUDIO
    TITLE "28:cjc023_6713"
    INDEX 01 16:33:30
  TRACK 787 AUDIO
    TITLE "0:"
    INDEX 01 16:35:02
  TRACK 788 AUDIO
    TITLE "29:cjc023_6714"
    INDEX 01 16:35:53
  TRACK 789 AUDIO
    TITLE "0:"
    INDEX 01 16:37:52
  TRACK 790 AUDIO
    TITLE "30:cjc023_6715"
    INDEX 01 16:37:73
  TRACK 791 AUDIO
    TITLE "0:"
    INDEX 01 16:40:36
  TRACK 792 AUDIO
    TITLE "31:cjc023_6716"
    INDEX 01 16:40:58
  TRACK 793 AUDIO
    TITLE "0:"
    INDEX 01 16:43:21
  TRACK 794 AUDIO
    TITLE "28:cjc023_6717"
    INDEX 01 16:44:18
  TRACK 795 AUDIO
    TITLE "0:"
    INDEX 01 16:45:30
  TRACK 796 AUDIO
    TITLE "29:cjc023_6718"
    INDEX 01 16:46:02
  TRACK 797 AUDIO
    TITLE "0:"
    INDEX 01 16:47:52
  TRACK 798 AUDIO
    TITLE "30:cjc023_6719"
    INDEX 01 16:48:00
  TRACK 799 AUDIO
    TITLE "0:"
    INDEX 01 16:49:70
  TRACK 800 AUDIO
    TITLE "31:cjc023_6720"
    INDEX 01 16:50:15
  TRACK 801 AUDIO
    TITLE "0:"
    INDEX 01 16:52:08
